<?xml version="1.0" standalone="no"?>
   <!DOCTYPE svg PUBLIC "-//W3C//DTD SVG 1.1//EN" 
   "http://www.w3.org/Graphics/SVG/1.1/DTD/svg11.dtd"><svg id="svg" version="1.1" width="840" height="804" xmlns="http://www.w3.org/2000/svg"><path d="M639.000 69.110 C 634.875 70.469,625.425 73.277,618.000 75.349 C 610.575 77.422,600.917 81.566,596.537 84.559 C 592.157 87.552,587.817 90.000,586.891 90.000 C 583.982 90.000,560.568 105.770,531.000 127.646 C 515.325 139.242,494.400 152.627,484.500 157.389 C 471.993 163.404,456.451 175.730,433.574 197.773 C 379.541 249.838,345.464 281.908,309.000 315.013 C 290.025 332.240,263.700 356.610,250.500 369.170 C 213.589 404.289,177.415 438.349,156.781 457.412 C 141.208 471.801,138.365 475.909,139.859 481.864 C 140.847 485.801,139.848 495.144,137.639 502.627 C 133.420 516.916,128.260 520.284,113.407 518.445 C 107.543 517.719,101.521 521.542,87.388 534.962 C 77.275 544.567,69.000 553.829,69.000 555.545 C 69.000 559.843,127.450 624.023,188.075 686.295 C 224.376 723.582,240.409 738.077,245.317 738.045 C 249.090 738.020,258.132 732.471,265.567 725.618 C 277.982 714.174,279.000 712.117,279.000 698.465 C 279.000 684.445,279.529 683.473,289.404 679.347 C 295.126 676.956,302.213 674.962,305.154 674.915 C 320.105 674.679,366.416 636.595,426.000 575.536 C 436.725 564.545,452.925 549.202,462.000 541.439 C 498.175 510.493,644.133 368.453,666.000 342.914 C 670.125 338.097,681.857 324.693,692.071 313.127 C 734.555 265.026,770.898 184.946,770.968 139.284 C 771.011 110.660,764.763 93.372,751.188 84.557 C 722.913 66.197,722.104 65.980,683.159 66.319 C 662.996 66.495,643.125 67.750,639.000 69.110 M724.803 85.724 C 745.704 96.709,750.090 102.010,754.732 121.895 C 762.867 156.743,752.297 191.866,714.675 255.000 C 704.721 271.704,671.974 314.797,664.558 320.952 C 661.414 323.561,657.974 321.513,649.011 311.697 C 642.680 304.764,627.916 288.834,616.203 276.296 C 586.437 244.435,576.000 232.147,576.000 228.961 C 576.000 225.509,650.326 152.408,670.500 136.017 C 687.084 122.543,698.917 115.959,712.500 112.648 L 721.500 110.453 708.000 103.362 C 696.632 97.391,689.991 96.250,665.955 96.136 C 640.150 96.013,635.629 96.869,618.848 105.056 C 608.639 110.037,583.096 126.894,562.086 142.517 C 526.309 169.121,523.546 170.614,518.514 166.060 C 515.559 163.386,513.883 159.999,514.789 158.533 C 517.030 154.907,559.824 123.609,577.731 112.500 C 625.041 83.149,637.098 79.350,685.803 78.449 C 706.633 78.064,712.207 79.104,724.803 85.724 M536.313 206.250 C 556.014 227.288,582.716 256.650,595.651 271.500 C 608.586 286.350,626.396 306.230,635.228 315.678 C 648.890 330.292,650.816 333.738,648.128 338.761 C 641.201 351.704,644.393 354.606,557.650 256.471 C 489.147 178.969,487.927 177.408,492.034 172.458 C 494.070 170.006,496.805 168.000,498.114 168.000 C 499.423 168.000,516.612 185.213,536.313 206.250 M485.906 191.250 C 489.750 195.788,500.456 207.612,509.697 217.527 C 518.939 227.442,535.414 245.667,546.309 258.027 C 557.204 270.387,580.492 296.599,598.059 316.276 C 615.627 335.952,630.000 353.577,630.000 355.442 C 630.000 357.306,614.138 374.254,594.750 393.103 C 509.465 476.019,461.931 521.854,442.444 539.966 C 430.925 550.672,400.796 579.359,375.492 603.716 C 350.187 628.072,327.912 647.942,325.992 647.871 C 324.071 647.800,303.206 629.237,279.624 606.621 C 243.300 571.784,236.486 563.832,235.036 554.588 C 233.730 546.257,234.677 542.353,239.042 538.088 C 242.187 535.014,261.560 516.975,282.094 498.000 C 302.628 479.025,335.645 447.918,355.464 428.874 C 375.284 409.829,402.300 384.195,415.500 371.909 C 443.953 345.425,482.869 308.887,510.779 282.451 C 526.634 267.433,530.310 262.354,528.148 258.451 C 523.857 250.706,486.160 213.000,482.708 213.000 C 481.007 213.000,473.289 219.605,465.558 227.678 C 453.715 240.044,408.351 283.129,310.500 374.947 C 244.440 436.934,184.939 489.152,178.535 490.759 C 166.671 493.737,162.000 490.363,162.000 478.817 C 162.000 469.071,167.256 463.601,249.289 387.973 C 297.297 343.713,346.910 298.217,359.539 286.871 C 372.167 275.524,392.625 256.581,405.000 244.774 C 443.450 208.090,472.121 183.000,475.591 183.000 C 477.421 183.000,482.063 186.713,485.906 191.250 M184.500 512.566 C 203.443 529.507,219.646 548.991,218.113 552.985 C 214.865 561.449,196.153 551.770,185.932 536.338 C 180.923 528.776,174.839 520.942,172.413 518.927 C 169.986 516.913,168.000 513.406,168.000 511.133 C 168.000 505.348,177.336 506.158,184.500 512.566 M127.011 549.521 C 131.553 555.010,164.235 588.644,199.635 624.264 C 271.882 696.960,272.717 698.374,254.045 716.472 L 244.090 726.121 230.979 711.811 C 223.768 703.940,210.445 689.400,201.372 679.500 C 165.104 639.925,144.547 618.138,115.789 588.794 L 85.696 558.089 97.315 546.189 C 110.412 532.777,113.431 533.116,127.011 549.521 M237.302 623.203 C 262.913 648.427,270.000 657.166,270.000 663.526 C 270.000 667.992,268.536 672.551,266.747 673.656 C 264.915 674.788,249.223 660.775,230.832 641.583 C 205.680 615.338,198.150 605.603,198.085 599.250 C 198.038 594.713,199.486 591.000,201.302 591.000 C 203.118 591.000,219.318 605.491,237.302 623.203 " stroke="none" fill="black" fill-rule="evenodd"/></svg>